<?xml version="1.0" encoding="UTF-8" standalone="no"?>
<svg
   version="1.1"
   width="548"
   height="655"
   id="svg108"
   sodipodi:docname="man_base.svg"
   inkscape:version="1.2.2 (b0a8486541, 2022-12-01)"
   xmlns:inkscape="http://www.inkscape.org/namespaces/inkscape"
   xmlns:sodipodi="http://sodipodi.sourceforge.net/DTD/sodipodi-0.dtd"
   xmlns="http://www.w3.org/2000/svg"
   xmlns:svg="http://www.w3.org/2000/svg">
  <defs
     id="defs112" />
  <sodipodi:namedview
     id="namedview110"
     pagecolor="#ffffff"
     bordercolor="#111111"
     borderopacity="1"
     inkscape:showpageshadow="0"
     inkscape:pageopacity="0"
     inkscape:pagecheckerboard="1"
     inkscape:deskcolor="#d1d1d1"
     showgrid="false"
     inkscape:zoom="0.90358531"
     inkscape:cx="534.53724"
     inkscape:cy="382.36567"
     inkscape:window-width="1920"
     inkscape:window-height="1018"
     inkscape:window-x="0"
     inkscape:window-y="34"
     inkscape:window-maximized="1"
     inkscape:current-layer="svg108" />
  <path
     id="path74"
     transform="translate(267.75,52.5625)"
     d="M 0,0 C -11.913608,-0.10239283 -22.225468,1.8399907 -33.306641,6.1894531 L -35.75,7.1875 c -12.141688,4.95022 -22.215197,10.965177 -32.03125,19.625 l -2.96875,2.625 c -10.916396,8.972381 -18.72571,19.850582 -25.824219,31.96875 L -97.75,63.4375 c -16.49371,28.324257 -21.2328,59.76159 -21.37109,92.04883 l -0.004,2.57617 c -0.0272,9.88342 0.2428,19.42151 1.95117,29.17773 l 0.42383,2.19727 -2.9375,-0.0625 c -3.0625,0.0625 -3.0625,0.0625 -4.0625,1.0625 -4.18282,13.04686 -4.19092,27.78058 -2.54297,41.30078 l 0.54297,3.69922 c 1.11184,8.77588 3.53487,15.6102 7.75,23.3125 3.04594,5.48284 5.85534,10.87603 8.14648,16.7207 1.96778,5.11137 3.68266,10.04209 7.35352,14.2168 3.33723,3.33725 5.335088,6.08731 6.486328,10.69727 l 0.509766,3.24414 0.599609,3.61523 c 1.326576,8.41913 2.495058,16.67479 5.294922,24.75195 1.759479,4.69707 2.26629,8.62496 2.0625,13.625 L -87.75,348.4375 c -0.284183,4.59612 0.08723,9.82554 -2,14 -2.138243,2.6278 -4.134299,5.20828 -5.972656,8.05859 -4.656434,7.52863 -9.660324,14.54838 -15.214844,21.4375 -1.40843,1.74254 -2.80237,3.49026 -4.16406,5.26953 -6.46055,8.55503 -13.28982,16.32253 -21.05664,23.72071 l -1.5918,1.51367 c -6.60298,6.39259 -13.42384,12.21159 -20.75,17.75 -6.96852,5.1869 -13.6465,10.55025 -19.75,16.75 -1.78686,1.8235 -3.58033,3.57016 -5.50391,5.25 -3.18621,2.70865 -6.22525,5.36785 -8.93359,8.5625 -1.67698,2.03051 -3.36762,4.03091 -5.11719,6 l -2.25781,2.5 c -1.56078,1.73072 -3.1233,3.45988 -4.6875,5.1875 -8.69809,9.52434 -16.91445,19.09115 -23.98047,29.90625 -3.28778,5.03659 -6.71519,9.94336 -10.26758,14.76563 0.92157,1.20758 1.7784,2.55643 2.57032,4.03124 0.92627,-1.3948 1.78255,-2.84017 2.42773,-4.45312 1.12475,-3.25968 1.12475,-3.25969 2.98828,-5.92578 1.18854,-1.739 2.36217,-3.48056 3.50195,-5.25195 5.48206,-8.60189 11.09328,-16.81626 17.88477,-24.44727 2.6519,-2.91621 5.29342,-5.59818 7.24219,-9.03906 l 0.63281,-1.58594 h 2 l 2.5,-2.9375 c 2.44663,-2.94415 5.01151,-5.52199 7.875,-8.0625 3.22312,-2.83791 6.39478,-5.70966 9.51172,-8.66406 6.80595,-6.45919 13.51988,-12.79911 21.11328,-18.33594 9.2268,-6.72376 17.40376,-13.96321 25.30273,-22.21484 l 1.69727,-1.78516 c 5.61782,-5.88636 11.13638,-11.80134 16.1875,-18.1875 1.98496,-2.55269 3.98931,-5.00784 6.16016,-7.40625 3.23358,-3.49131 6.5177,-6.78698 8.83984,-10.96875 3.613954,-6.85403 6.893726,-12.64862 13.8125,-16.4375 l 1,10 h 2 v -33 c 3.835299,4.68763 7.564016,9.47959 11.722656,13.88281 4.937586,4.73155 9.716929,9.58558 14.41211,14.55664 L -55.5,375.125 c 3.230659,3.42313 6.460108,6.84214 9.564453,10.38086 4.788918,5.52981 9.815782,10.72527 15.029297,15.85352 1.052204,1.02582 2.104317,2.05193 3.15625,3.07812 3.734538,3.71032 6.154383,6.76929 11.5,7.4375 l 2.5,-0.4375 -1,4 c 8.5315046,2.07525 16.7194444,0.59828 24.6328125,-2.89062 L 12.25,411.4375 c 2.778407,-1.22875 5.343423,-2.50264 8,-4 l 1,-3 h 3 c 2.999973,-2 3.000018,-2 5.25,-4.625 4.713889,-5.80491 9.713457,-11.34936 14.75,-16.875 2.346426,-2.56653 4.683481,-5.13145 6.949219,-7.76953 2.693612,-3.16578 5.343644,-6.07798 8.550781,-8.73047 2.530467,-2.09187 4.722259,-4.26987 6.875,-6.75 1.999918,-2.35072 4.010626,-4.68188 6.066406,-6.98438 L 75.1875,349.9375 c 1.353604,-1.5005 2.707591,-3.00068 4.0625,-4.5 0.09816,2.82764 0.200172,5.65508 0.306641,8.48242 l 0.130859,3.45508 0.119141,3.44336 0.126953,3.27148 c 0.08588,2.34321 -0.398008,4.63323 1.316406,6.34766 l 4,-2 c 2.241476,2.64904 4.461019,5.29783 6.574219,8.05078 3.163297,4.1514 6.426368,8.13734 9.925781,12.01172 2.02737,2.2127 4.05421,4.42154 6.01758,6.69141 3.45768,4.00583 6.99925,7.88645 10.7207,11.64843 l 1.83984,1.84375 c 1.33936,1.34619 2.67922,2.69188 4.01954,4.03711 2.07426,2.07411 4.14786,4.14912 6.21289,6.23242 7.21147,7.27784 14.39114,14.38155 22.4375,20.74219 1.3408,1.03721 2.67552,2.08077 4,3.13867 l 1.45117,1.16993 c 4.15367,3.33205 8.14816,6.67653 11.86328,10.49609 1.99681,2.05744 3.97905,3.97165 6.19531,5.79297 6.38566,4.97909 12.3391,10.27505 18.25,15.80078 l 2.49219,2.34375 1,-2 c -3.4721,-3.56976 -6.98763,-7.04763 -10.75,-10.3125 -2.30209,-1.98272 -4.57441,-3.98426 -6.81641,-6.03516 -6.74482,-6.20753 -13.63191,-13.52158 -21.75,-17.90234 l -1.68359,-0.75 v -2 c -6.5687,-3.28439 -13.00136,-9.58316 -17.75,-15.125 -1.68124,-2.03217 -3.35581,-3.98284 -5.20312,-5.86719 -2.6586,-2.60778 -5.31834,-5.18798 -7.79297,-7.97265 -2.36161,-2.7543 -4.70027,-5.48251 -7.26953,-8.04688 -8.86592,-8.62664 -16.8234,-18.01401 -24.29688,-27.86328 -2.159426,-2.90445 -4.270468,-5.71626 -6.863281,-8.25781 -1.94951,-1.81965 -1.949545,-1.81965 -3.613281,-3.72657 -1.94729,-5.64465 -1.947292,-5.64474 -1.515626,-11.74609 L 83.25,347.4375 c 0.214739,-4.01936 0.356548,-8.0239 1,-12 1.299046,-2.38165 2.038278,-4.20254 2.546875,-6.89844 l 0.417969,-3.33594 c 0.330977,-2.50424 0.654935,-5.00958 0.972656,-7.51562 0.930922,-7.43204 0.737969,-18.49898 6.859375,-23.80859 L 97,293 c 6.18674,-3.40674 10.63557,-8.83295 12.6875,-15.625 1.04716,-3.72324 2.54251,-7.02219 4.31641,-10.45898 11.8928,-22.91668 17.25873,-46.72393 12.8789,-72.64649 -0.81705,-2.36239 -0.81608,-2.36191 -5.63281,-4.83203 0.66488,2.14882 1.02732,3.75788 0.77344,6.00781 -0.62901,3.3424 -0.98731,6.11296 -0.17578,9.44922 2.89671,8.55558 3.10859,15.02084 1.02734,23.85547 -0.84887,3.35598 -1.61637,6.62981 -2.12891,10.05469 -0.99222,7.598 -2.02715,15.42486 -7.05468,21.52343 -3.05202,3.24963 -4.3377,4.45599 -5.06641,9.04688 -0.0812,1.35749 -0.20696,2.713 -0.375,4.0625 -1.96183,5.53547 -5.29749,11.38184 -10,15 -3.753897,0.58661 -3.75396,0.58661 -7,0 0.679742,-3.92744 1.374315,-7.18244 0,-11 -1.766682,4.53427 -2.4972,8.89799 -3.089844,13.69141 -0.237153,1.99892 -0.48163,3.99517 -0.734375,5.99218 -0.395965,3.10463 -0.787702,6.21079 -1.175781,9.31641 -2.081073,17.07589 -5.036611,32.64495 -18.902344,44.47656 -2.562163,2.08723 -4.942743,4.23853 -7.283203,6.56836 L 58.625,358.9375 c -7.027709,7.07425 -14.205229,14.1856 -20.367188,22.03906 -2.264415,3.03665 -4.495622,5.93751 -7.148437,8.64844 -6.374253,5.89723 -12.407629,10.25528 -21.3300781,10.29102 l -2.2988281,-0.0527 c -2.4929801,-0.0102 -4.9839083,-0.0254 -7.47656255,-0.0684 -1.71925305,-0.0296 -3.43873355,-0.051 -5.15820315,-0.0625 -1.6904052,-0.008 -3.3819026,-0.0174 -5.0722651,-0.0312 l -2.417969,-0.0254 -2.330078,-0.0215 c -9.765808,-0.17538 -14.928393,-5.19752 -21.462891,-11.9043 -1.731203,-1.80958 -3.497778,-3.58669 -5.3125,-5.3125 -2.375239,-1.16451 -3.696756,-1.44907 -4.980469,-3.78125 -1.019522,-2.21875 -1.019549,-2.21875 -3.007812,-4.875 L -52.0625,370.9375 c -2.267065,-2.8021 -4.390311,-5.25805 -7.1875,-7.53516 l -2.5,-1.96484 c -15.836453,-15.94289 -27.381275,-32.14955 -28.925781,-55.16016 -0.135077,-2.3492 -0.275886,-4.69824 -0.421875,-7.04687 l -0.222656,-3.39453 c -0.137766,-2.34948 0.287867,-4.68087 -1.429688,-6.39844 -1.666072,0.0438 -3.333823,0.0397 -5,0 -7.01868,-7.51122 -7.01877,-7.51139 -10.5,-17.5625 -1.12472,-3.04524 -2.19996,-5.91642 -3.82031,-8.73047 -2.6262,-3.93921 -4.57874,-7.45366 -5.92188,-12.01562 L -118.75,248.4375 c -5.82776,-17.88747 -5.30238,-36.60118 -2,-55 1.34098,0.30109 2.674,0.63859 4,1 5.08246,3.27906 8.7644,7.07627 11.1875,12.625 1.11303,2.77546 2.13052,4.85203 3.8125,7.375 -0.004,-1.94932 -0.0155,-3.89889 -0.0625,-5.84766 l -0.0625,-2.40234 c 0.008,-2.31574 -0.0608,-4.55741 -0.29688,-6.86133 -0.57706,-1.88867 -0.57812,-1.88867 -3.44531,-3.87305 -4.13327,-3.40945 -4.13287,-3.40905 -5.56836,-8.63281 L -111.75,184.4375 c -4.92512,-20.36176 -4.04642,-42.13729 -1.29883,-62.76562 l 0.29883,-2.23438 c 1.0926,-9.31977 3.1619,-17.94666 6.13281,-26.865234 L -105.4375,89.125 c 7.166992,-20.970493 18.359172,-41.337267 35.449219,-55.859375 L -67.75,31.4375 C -48.640806,15.704615 -29.091098,9.3531349 -5.1757812,5.0507812 L -1.75,4.4375 C 1.1036842,3.7230155 2.9221848,3.3845142 5.8359375,3.8554688 L 8.625,4.625 11.820312,5.4960938 15.25,6.4375 c 17.853408,4.257354 37.133245,10.864658 49.925781,24.703125 L 67.25,33.4375 c 8.176357,8.375211 15.178167,17.073588 21.796875,26.738281 L 91.25,63.4375 l 1,-2 C 88.152326,53.055893 82.293669,44.173241 75.625,37.625 73.838532,35.961738 72.152442,34.326103 70.542969,32.488281 60.715033,20.84118 47.741675,10.793856 33.347656,5.4648438 L 30.25,4.4375 C 21.350057,1.2611953 13.161091,0.18780306 3.7226562,0.02148438 Z m 4.25,409.4375 h 6 l -2,2 z m 198,73 c 0.9533,2.08448 1.90935,3.88607 3.33984,5.68359 7.53358,8.27036 14.79295,16.77379 21.61328,25.64258 l 1.60938,2.11133 c 2.75943,3.56302 5.1049,6.64577 6.65234,10.91016 l 0.78516,2.65234 c 1.53218,1.53218 2.87258,3.06809 4.14648,4.60938 0.34375,0.002 0.6875,9.5e-4 1.03125,0.002 0.60824,-1.23593 1.28707,-2.37736 2.0293,-3.42188 -0.3161,-0.56291 -0.6102,-1.12486 -1.01953,-1.68945 -4.5544,-5.20494 -8.68923,-10.50643 -12.625,-16.1875 -1.47094,-2.16289 -2.96151,-4.23938 -4.5625,-6.3125 h -2 v -2 c -6.04656,-8.13161 -13.10759,-15.65177 -21,-22 z m 39.01367,51.94141 c -0.15564,0.0376 -0.31122,0.0755 -0.46679,0.11328 0.0884,0.1091 0.17487,0.2186 0.26171,0.32812 0.0674,-0.14867 0.13568,-0.29532 0.20508,-0.4414 z" />
  <path
     d="M0 0 C17.63121386 16.26621666 19.82035589 52.58266596 21 75 C21.51977019 87.94088543 20.87295727 100.63317062 19.4375 113.49609375 C19.01976513 117.35932542 18.9163689 121.11638099 19 125 C21.64 124.67 24.28 124.34 27 124 C27 124.66 27 125.32 27 126 C26.01 126.474375 25.02 126.94875 24 127.4375 C19.64166743 129.88350297 16.77561375 133.37281752 13.6015625 137.171875 C13.07304687 137.77515625 12.54453125 138.3784375 12 139 C11.67 139 11.34 139 11 139 C10.74199568 132.94105986 11.72649541 127.4251228 12.9375 121.5 C13.30228122 119.6773829 13.66559353 117.85447111 14.02734375 116.03125 C14.18968506 115.23267578 14.35202637 114.43410156 14.51928711 113.61132812 C15.63858137 107.53109884 16.18611289 101.6390007 16.2734375 95.47265625 C16.28592026 94.65893051 16.29840302 93.84520477 16.31126404 93.00682068 C16.67838663 63.2109675 15.76415497 31.00891855 1.13671875 4.22265625 C0 2 0 2 0 0 Z "
     fill="#000000"
     transform="translate(361,118)"
     id="path76" />
  <path
     id="path78"
     transform="translate(183,202)"
     d="M 0,0 C -0.07763037,0.18293766 -0.15485204,0.36586414 -0.23242188,0.54882812 -0.15854819,0.47249693 -0.08439291,0.39740497 -0.00976563,0.32617188 0.01157167,0.26198169 0.0342087,0.19999354 0.05859375,0.140625 0.03803181,0.09301442 0.02145523,0.04855011 0,0 Z" />
  <path
     d="M0 0 C15.26965519 -0.46003596 35.10419687 2.83438384 47.38671875 12.515625 C50 15 50 15 50.375 17.8125 C50.189375 18.8953125 50.189375 18.8953125 50 20 C43.83124053 21.92710007 39.44931909 19.61788368 33.8125 17.1875 C32.85303467 16.7845874 31.89356934 16.3816748 30.9050293 15.96655273 C20.31479798 11.42987363 9.6064484 6.40429894 0 0 Z "
     fill="#000000"
     transform="translate(201,223)"
     id="path80" />
  <path
     d="M0 0 C0 0.66 0 1.32 0 2 C-0.94359375 2.36351562 -1.8871875 2.72703125 -2.859375 3.1015625 C-8.99234147 5.49397412 -14.99122638 7.90514567 -20.8125 11 C-26.51162971 13.96138811 -32.36797998 15.82048409 -38.47192383 17.73681641 C-43.87705429 19.48599352 -48.52268937 21.69765426 -53.25 24.8984375 C-55 26 -55 26 -57 26 C-56.60802871 19.72845933 -52.16399594 15.0099615 -47.75 10.91015625 C-44.57012428 8.70140735 -41.42750061 7.56137407 -37.75 6.5 C-36.70924316 6.19026245 -36.70924316 6.19026245 -35.64746094 5.87426758 C-33.43686919 5.22897494 -31.22062988 4.60980276 -29 4 C-28.27039063 3.79810059 -27.54078125 3.59620117 -26.7890625 3.38818359 C-17.75723072 0.93938401 -9.43535581 -0.65447555 0 0 Z "
     fill="#000000"
     transform="translate(337,224)"
     id="path82" />
  <path
     d="M0 0 C0.69351563 0.34353516 1.38703125 0.68707031 2.1015625 1.04101562 C5.87309363 2.96651954 9.08340843 4.79927927 11.75 8.1875 C11.75 9.1775 11.75 10.1675 11.75 11.1875 C10 11.9375 10 11.9375 7.75 12.1875 C6.3934836 10.87776002 5.06442362 9.53947858 3.75 8.1875 C1.46235737 7.00168092 -0.83854088 6.11498428 -3.25 5.1875 C-3.25 6.8375 -3.25 8.4875 -3.25 10.1875 C-5.56 10.8475 -7.87 11.5075 -10.25 12.1875 C-10.58 11.8575 -10.91 11.5275 -11.25 11.1875 C-11.07364548 8.49667128 -10.63164079 5.85898554 -10.25 3.1875 C-11.24 3.1875 -12.23 3.1875 -13.25 3.1875 C-13.58 4.1775 -13.91 5.1675 -14.25 6.1875 C-16.725 5.6925 -16.725 5.6925 -19.25 5.1875 C-19.58 7.1675 -19.91 9.1475 -20.25 11.1875 C-22.47189824 8.96560176 -23.17598892 7.10267292 -24.25 4.1875 C-28.36448641 4.85386549 -28.36448641 4.85386549 -32.25 6.1875 C-34.32032881 9.15575898 -34.32032881 9.15575898 -35.25 12.1875 C-36.24 11.5275 -37.23 10.8675 -38.25 10.1875 C-40.2992094 9.73610541 -40.2992094 9.73610541 -42.4375 9.5625 C-43.695625 9.43875 -44.95375 9.315 -46.25 9.1875 C-33.13367528 -2.57196354 -16.01294598 -8.38700878 0 0 Z "
     fill="#000000"
     transform="translate(231.25,244.8125)"
     id="path84" />
  <path
     d="M0 0 C1.32329117 0.84391022 2.63033778 1.71422859 3.9140625 2.6171875 C6.00198475 4.05509622 8.18020071 4.93621157 10.5703125 5.7578125 C10.4375 7.55078125 10.4375 7.55078125 9.5703125 9.7578125 C6.953125 11.49609375 6.953125 11.49609375 3.6953125 13.0703125 C2.62539063 13.60269531 1.55546875 14.13507813 0.453125 14.68359375 C-2.4296875 15.7578125 -2.4296875 15.7578125 -5.4296875 14.7578125 C-4.4396875 14.1596875 -3.4496875 13.5615625 -2.4296875 12.9453125 C-0.9446875 11.8625 -0.9446875 11.8625 0.5703125 10.7578125 C0.5703125 9.7678125 0.5703125 8.7778125 0.5703125 7.7578125 C-3.3896875 5.7778125 -7.3496875 3.7978125 -11.4296875 1.7578125 C-12.0484375 4.201875 -12.0484375 4.201875 -12.6796875 6.6953125 C-13.3828125 9.47265625 -13.3828125 9.47265625 -14.4296875 11.7578125 C-16.5390625 12.57421875 -16.5390625 12.57421875 -18.4296875 12.7578125 C-18.4296875 11.1078125 -18.4296875 9.4578125 -18.4296875 7.7578125 C-19.4196875 7.7578125 -20.4096875 7.7578125 -21.4296875 7.7578125 C-21.4296875 6.1078125 -21.4296875 4.4578125 -21.4296875 2.7578125 C-22.4196875 3.0878125 -23.4096875 3.4178125 -24.4296875 3.7578125 C-24.63109226 7.38309818 -24.28745515 9.62282958 -22.4296875 12.7578125 C-24.6796875 13.0703125 -24.6796875 13.0703125 -27.4296875 12.7578125 C-29.7421875 10.5078125 -29.7421875 10.5078125 -31.4296875 7.7578125 C-31.4296875 6.4378125 -31.4296875 5.1178125 -31.4296875 3.7578125 C-34.85626086 5.16875447 -38.01877235 6.50566002 -41.1796875 8.4453125 C-43.4296875 9.7578125 -43.4296875 9.7578125 -46.4296875 9.7578125 C-43.5736915 3.16486651 -37.51042044 -0.03489432 -31.0546875 -2.6171875 C-21.00233009 -5.9173433 -9.47077104 -4.84196976 0 0 Z "
     fill="#000000"
     transform="translate(338.4296875,246.2421875)"
     id="path86" />
  <path
     d="M0 0 C0.66 0.33 1.32 0.66 2 1 C0.68 4.3 -0.64 7.6 -2 11 C-2.99 10.67 -3.98 10.34 -5 10 C-4.50769231 3.47692308 -4.50769231 3.47692308 -1.9375 1.0625 C-0.9784375 0.5365625 -0.9784375 0.5365625 0 0 Z "
     fill="#000000"
     transform="translate(279,258)"
     id="path88" />
  <path
     d="M0 0 C1 3 1 3 -0.43359375 5.91796875 C-1.09488281 6.99691406 -1.75617188 8.07585937 -2.4375 9.1875 C-3.09621094 10.27417969 -3.75492187 11.36085938 -4.43359375 12.48046875 C-5.20896484 13.72763672 -5.20896484 13.72763672 -6 15 C-7 12 -7 12 -6.07421875 9.58984375 C-5.61660156 8.71457031 -5.15898437 7.83929688 -4.6875 6.9375 C-4.23761719 6.05964844 -3.78773438 5.18179687 -3.32421875 4.27734375 C-2 2 -2 2 0 0 Z "
     fill="#000000"
     transform="translate(380,258)"
     id="path90" />
  <path
     d="M0 0 C2 2 2 2 2.265625 4.49609375 C2.26046875 5.46675781 2.2553125 6.43742187 2.25 7.4375 C2.25515625 8.40558594 2.2603125 9.37367188 2.265625 10.37109375 C2 13 2 13 0 16 C0 10.72 0 5.44 0 0 Z "
     fill="#000000"
     transform="translate(367,266)"
     id="path92" />
  <path
     d="M0 0 C0.66 0 1.32 0 2 0 C3.13437515 2.8291043 3.00369234 3.98868284 2.0390625 6.9453125 C1.33910156 8.51925781 1.33910156 8.51925781 0.625 10.125 C-0.06722656 11.70667969 -0.06722656 11.70667969 -0.7734375 13.3203125 C-1.49240325 14.89104658 -2.2274565 16.454913 -3 18 C-3.66 18 -4.32 18 -5 18 C-3.75971762 11.82777121 -2.10396411 5.93317878 0 0 Z "
     fill="#000000"
     transform="translate(157,268)"
     id="path94" />
  <path
     d="M0 0 C6.08002752 6.90912218 5.36697851 15.31833689 5 24 C4.74565452 27.01765818 4.38772165 29.99515723 4 33 C4 33.99 4 34.98 4 36 C4.99 35.505 4.99 35.505 6 35 C7.91302307 38.26613695 8.35674661 40.99445248 8.625 44.75 C8.69976562 45.73484375 8.77453125 46.7196875 8.8515625 47.734375 C8.90054688 48.48203125 8.94953125 49.2296875 9 50 C2.97019032 47.79885266 0.58454253 41.47979508 -2 36 C-2.75526671 31.54392643 -1.93529189 28.69724944 -0.4375 24.5625 C1.16455179 20.10984902 0.86164928 16.58701526 0 12 C-0.22664514 10.21055757 -0.43456862 8.41865775 -0.625 6.625 C-0.72039062 5.79226563 -0.81578125 4.95953125 -0.9140625 4.1015625 C-1 2 -1 2 0 0 Z "
     fill="#000000"
     transform="translate(161,271)"
     id="path96" />
  <path
     d="M0 0 C4.36383148 4.36383148 5.19734052 11.40442384 5.3125 17.375 C5.29570738 20.81188964 4.7116234 23.01318307 3 26 C2.34 26 1.68 26 1 26 C0.38511719 27.13179688 -0.22976563 28.26359375 -0.86328125 29.4296875 C-1.6793081 30.9116673 -2.49573526 32.39342674 -3.3125 33.875 C-3.91868164 34.99455078 -3.91868164 34.99455078 -4.53710938 36.13671875 C-5.13168945 37.20986328 -5.13168945 37.20986328 -5.73828125 38.3046875 C-6.09962158 38.96452637 -6.46096191 39.62436523 -6.83325195 40.30419922 C-8 42 -8 42 -11 44 C-10.53449208 38.60010815 -9.70306659 33.47512439 -8.5 28.1875 C-7.2396204 22.55250189 -6.53441458 17.08909784 -6.2109375 11.328125 C-6 9 -6 9 -5 7 C-4.34 7 -3.68 7 -3 7 C-2.87625 6.21625 -2.7525 5.4325 -2.625 4.625 C-2 2 -2 2 0 0 Z M-2 12 C-3.38261997 15.11401167 -3.38261997 15.11401167 -1.6875 18.625 C-0.39583333 22.05208333 -0.39583333 22.05208333 2 23 C3.85776765 19.86501708 4.20140476 17.62528568 4 14 C2.02 13.34 0.04 12.68 -2 12 Z "
     fill="#000000"
     transform="translate(371,282)"
     id="path98" />
  <path
     d="M0 0 C2.4375 1.3125 2.4375 1.3125 5 4 C5.74756245 7.65884437 5.92928996 11.27165244 6 15 C4.31564659 11.73656528 3.14067531 8.49331814 2 5 C1.34588315 3.32836805 0.68346682 1.65984798 0 0 Z "
     fill="#000000"
     transform="translate(254,328)"
     id="path100" />
  <path
     d="M0 0 C0.99 0.33 1.98 0.66 3 1 C1.35 2.98 -0.3 4.96 -2 7 C-2.6875 5.1875 -2.6875 5.1875 -3 3 C-1.5625 1.25 -1.5625 1.25 0 0 Z "
     fill="#000000"
     transform="translate(277,332)"
     id="path102" />
  <path
     d="M0 0 C1.32 0 2.64 0 4 0 C4.66 0.99 5.32 1.98 6 3 C11.108501 4.215098 15.6898829 3.85903473 20.8125 3.0625 C29.50277928 1.85915425 37.51388926 1.889887 46.25 2.5 C53.10338144 2.97137442 59.94344943 3.14258957 66.8125 3.1875 C67.77381836 3.20039063 68.73513672 3.21328125 69.72558594 3.2265625 C70.62696289 3.22785156 71.52833984 3.22914063 72.45703125 3.23046875 C73.26116455 3.23457764 74.06529785 3.23868652 74.89379883 3.24291992 C77.30295403 3.12715756 77.30295403 3.12715756 80 1 C81.32 1 82.64 1 84 1 C83.67 2.65 83.34 4.3 83 6 C73.75032914 7.85560347 64.66423967 8.40732972 55.25 8.625 C53.85935391 8.66330444 52.46872838 8.70236271 51.078125 8.7421875 C47.71887543 8.83549999 44.35961798 8.92128895 41 9 C41 8.34 41 7.68 41 7 C40.27296875 7.144375 39.5459375 7.28875 38.796875 7.4375 C25.07113938 9.97148196 11.42959539 10.25059731 -1 3 C-0.67 2.01 -0.34 1.02 0 0 Z "
     fill="#000000"
     transform="translate(223,363)"
     id="path104" />
  <path
     d="M0 0 C7.59 0 15.18 0 23 0 C22 4 22 4 20.23046875 5.15625 C16.14140757 6.70307524 12.42301437 8.03862895 8 8 C4.60033746 6.4478713 1.83282277 4.42226875 -1 2 C-0.67 1.34 -0.34 0.68 0 0 Z "
     fill="#000000"
     transform="translate(254,388)"
     id="path106" />
</svg>
