<?xml version="1.0" encoding="UTF-8"?>
<svg version="1.1" xmlns="http://www.w3.org/2000/svg" width="656" height="655">
<path d="M0 0 C0.86238281 0.76054688 1.72476562 1.52109375 2.61328125 2.3046875 C4.10794922 3.60019531 4.10794922 3.60019531 5.6328125 4.921875 C12.3632693 10.84899532 18.17178172 17.14804365 23.61328125 24.3046875 C24.29003906 25.17738281 24.96679688 26.05007812 25.6640625 26.94921875 C31.00335408 34.03025982 35.39856457 41.52502296 39.61328125 49.3046875 C40.41765625 50.77035156 40.41765625 50.77035156 41.23828125 52.265625 C55.61933045 79.60459875 59.83032619 111.05712987 59.73828125 141.5546875 C59.74214844 142.85148438 59.74601562 144.14828125 59.75 145.484375 C59.74318494 152.17676019 59.52549843 158.6730134 58.61328125 165.3046875 C59.76828125 165.2221875 60.92328125 165.1396875 62.11328125 165.0546875 C67.04521769 165.09825584 70.68457664 166.29702775 74.61328125 169.3046875 C86.94865726 182.748542 86.25639155 202.11966145 85.78369141 219.09960938 C85.43899889 225.58259412 84.01699641 231.25419306 81.61328125 237.3046875 C81.36610352 237.94422363 81.11892578 238.58375977 80.86425781 239.24267578 C75.7383991 252.18779896 67.87954225 263.19070721 59.61328125 274.3046875 C59.18950195 274.88460449 58.76572266 275.46452148 58.32910156 276.06201172 C53.32642935 282.88642828 48.11914674 288.8778301 39.86328125 291.4921875 C35.5292765 293.90922861 35.19253027 296.01949385 33.7578125 300.62890625 C23.03970797 335.05121465 3.67039843 370.81255452 -26.3359375 392.109375 C-30.2180429 395.39700486 -30.60734714 399.1295092 -31.16552734 404.02246094 C-31.53471758 409.50082023 -31.71538726 414.93886156 -31.69921875 420.4296875 C-31.72338867 422.08291016 -31.72338867 422.08291016 -31.74804688 423.76953125 C-31.75523415 435.88728169 -28.7227712 445.64752981 -20.51171875 454.6796875 C-4.49150329 469.77565976 17.62458085 478.13015484 38.03320312 485.35351562 C40.51075145 486.26688885 42.92211979 487.27791653 45.34765625 488.3203125 C59.63773471 494.06904626 73.84673526 494.08597286 89.0378418 493.95483398 C124.09663867 493.78222133 154.83007132 506.89645115 180.61328125 530.3046875 C181.96292969 531.52671875 181.96292969 531.52671875 183.33984375 532.7734375 C200.82222886 549.42332808 214.94447252 573.51014478 219.61328125 597.3046875 C219.61328125 598.6246875 219.61328125 599.9446875 219.61328125 601.3046875 C217.63328125 601.3046875 215.65328125 601.3046875 213.61328125 601.3046875 C213.33355469 600.263125 213.05382812 599.2215625 212.765625 598.1484375 C206.54431687 575.62502244 196.42895849 556.57514997 180.61328125 539.3046875 C179.44732422 537.99757813 179.44732422 537.99757813 178.2578125 536.6640625 C157.89375089 514.96968531 125.59202576 501.45028714 96.02026367 500.19458008 C93.09205502 500.13418625 90.16711014 500.11531125 87.23828125 500.1171875 C85.67110352 500.1162207 85.67110352 500.1162207 84.07226562 500.11523438 C74.81859084 500.17733957 65.76832429 501.01003495 56.61328125 502.3046875 C57.60328125 501.3146875 58.59328125 500.3246875 59.61328125 499.3046875 C58.64841797 498.99877686 57.68355469 498.69286621 56.68945312 498.37768555 C-19.01854096 474.26319537 -19.01854096 474.26319537 -34.55859375 446.1875 C-38.60066476 437.48826021 -40.03908835 425.84338902 -39.38671875 416.3046875 C-38.87109375 415.6446875 -38.35546875 414.9846875 -37.82421875 414.3046875 C-36.07114772 412.33799472 -36.07114772 412.33799472 -36.69921875 409.5546875 C-36.92609375 408.8121875 -37.15296875 408.0696875 -37.38671875 407.3046875 C-40.8795194 406.39197025 -42.69861769 405.96321606 -45.9921875 407.59765625 C-46.84425781 408.22285156 -47.69632812 408.84804688 -48.57421875 409.4921875 C-53.23466672 412.69465379 -57.59270761 414.70184455 -62.9765625 416.3828125 C-65.51949891 417.35547537 -67.2322393 418.66763997 -69.38671875 420.3046875 C-70.45921875 420.5315625 -71.53171875 420.7584375 -72.63671875 420.9921875 C-76.59032947 422.37595125 -77.4357873 423.26034352 -80.07421875 426.3046875 C-84.15784259 430.73127194 -87.6713096 431.38510695 -93.5546875 431.85546875 C-96.46176154 432.13161837 -96.46176154 432.13161837 -98.88671875 433.8359375 C-103.77818951 436.70967657 -109.0542525 435.51686439 -114.38671875 434.3046875 C-117.91387728 432.88358808 -121.25781132 431.14713147 -124.56567383 429.27612305 C-127.98355566 427.36616903 -130.9684322 426.06523863 -134.828125 425.3203125 C-139.73685873 424.36324067 -143.71664686 422.39103281 -148.07421875 419.9921875 C-148.79416016 419.61384766 -149.51410156 419.23550781 -150.25585938 418.84570312 C-155.45903007 416.04253641 -159.89154706 412.89582733 -164.01171875 408.6171875 C-165.73240859 406.97471083 -167.13642545 406.09890867 -169.38671875 405.3046875 C-172.70222077 405.58012945 -172.70222077 405.58012945 -175.38671875 407.3046875 C-175.43565383 408.82473335 -175.42297273 410.34678634 -175.38671875 411.8671875 C-175.27591194 428.93143615 -175.75116159 445.11144799 -187.82421875 458.2421875 C-209.80974501 479.2060815 -243.17931674 489.34713187 -271.38671875 498.3046875 C-270.39671875 499.2946875 -269.40671875 500.2846875 -268.38671875 501.3046875 C-269.65902344 501.2325 -270.93132812 501.1603125 -272.2421875 501.0859375 C-311.96635454 498.93940654 -350.512997 500.25762668 -381.76171875 527.9296875 C-383.30997531 529.3810227 -384.85234123 530.83868687 -386.38671875 532.3046875 C-386.97582031 532.830625 -387.56492187 533.3565625 -388.171875 533.8984375 C-407.28452283 551.61039483 -416.71508476 577.12854905 -424.38671875 601.3046875 C-426.36671875 601.3046875 -428.34671875 601.3046875 -430.38671875 601.3046875 C-429.19599156 594.3120746 -427.38702101 587.85181586 -424.82421875 581.2421875 C-424.47343262 580.33460693 -424.12264648 579.42702637 -423.76123047 578.49194336 C-411.23074218 546.8667185 -389.18177641 518.31378293 -357.63671875 504.0546875 C-352.30495267 501.90285365 -346.90863487 500.13809165 -341.38671875 498.5546875 C-340.35659668 498.25643066 -340.35659668 498.25643066 -339.30566406 497.95214844 C-327.67807564 494.80941128 -316.35817498 494.17014649 -304.40551758 494.23242188 C-284.4205199 494.31589998 -268.06776521 491.81408082 -249.38671875 484.3046875 C-247.93313965 483.73838623 -247.93313965 483.73838623 -246.45019531 483.16064453 C-240.32414984 480.75436457 -234.33778021 478.11351364 -228.38671875 475.3046875 C-227.52191895 474.9010498 -226.65711914 474.49741211 -225.76611328 474.08154297 C-201.46907104 463.24705056 -201.46907104 463.24705056 -185.19140625 443.51953125 C-182.71366365 436.33413744 -182.91129152 429.25394274 -183.07421875 421.7421875 C-183.08574838 420.38347737 -183.0955221 419.02475116 -183.10351562 417.66601562 C-182.56417546 403.02358156 -182.56417546 403.02358156 -188.38671875 390.3046875 C-190.17573801 388.6598713 -192.01691172 387.08737104 -193.8671875 385.51171875 C-221.05201049 361.69865675 -237.84868799 329.94279921 -247.38671875 295.3046875 C-247.38671875 294.3146875 -247.38671875 293.3246875 -247.38671875 292.3046875 C-248.21171875 292.0984375 -249.03671875 291.8921875 -249.88671875 291.6796875 C-265.38343348 285.59169243 -272.2950137 268.65173252 -278.6015625 254.38671875 C-288.42652783 231.32283797 -295.56649308 200.64736939 -287.69921875 175.9921875 C-285.67985874 171.29717548 -283.86037775 168.83694731 -279.38671875 166.3046875 C-276.38084002 165.66021923 -273.45705037 165.37974005 -270.38671875 165.3046875 C-270.54825439 164.32669189 -270.70979004 163.34869629 -270.8762207 162.34106445 C-271.47503717 158.12663525 -271.54846653 153.97394522 -271.5546875 149.72265625 C-271.5580159 148.90960526 -271.5613443 148.09655426 -271.56477356 147.25886536 C-271.56981569 145.540177 -271.57218273 143.82147894 -271.57202148 142.1027832 C-271.5741804 139.53774715 -271.59228814 136.97316171 -271.61132812 134.40820312 C-271.66297862 119.68151046 -270.76678885 105.06839369 -267.13671875 90.7421875 C-266.91910889 89.865625 -266.70149902 88.9890625 -266.47729492 88.0859375 C-255.87776522 46.63534672 -231.05852669 9.05661127 -194.07421875 -13.3828125 C-191.53619246 -14.86726276 -188.97202027 -16.29499489 -186.38671875 -17.6953125 C-185.43104004 -18.21520752 -185.43104004 -18.21520752 -184.45605469 -18.74560547 C-127.14347105 -49.26548805 -49.45349745 -42.17430283 0 0 Z M-140.38671875 -27.6953125 C-141.17046875 -27.51838867 -141.95421875 -27.34146484 -142.76171875 -27.15917969 C-182.2510555 -17.99879268 -217.29352088 4.1408147 -239.18286133 38.87646484 C-253.62226482 62.57771892 -262.65582663 88.6782207 -265.38671875 116.3046875 C-265.49757813 117.36429688 -265.6084375 118.42390625 -265.72265625 119.515625 C-267.79202169 142.16678728 -267.17128826 166.50184762 -260.38671875 188.3046875 C-260.73863281 187.58023438 -261.09054687 186.85578125 -261.453125 186.109375 C-265.88577726 177.34592468 -265.88577726 177.34592468 -273.38671875 171.3046875 C-276.63701919 170.87333977 -276.63701919 170.87333977 -279.38671875 172.3046875 C-281.2672346 174.66058746 -281.2672346 174.66058746 -282.38671875 177.3046875 C-282.88171875 178.2946875 -282.88171875 178.2946875 -283.38671875 179.3046875 C-286.94707914 207.56779528 -282.13294979 233.78399279 -270.01171875 259.3046875 C-269.47047363 260.4508252 -268.92922852 261.59696289 -268.37158203 262.77783203 C-264.25393654 271.19653981 -259.50992668 280.11486021 -251.38671875 285.3046875 C-250.39671875 285.3046875 -249.40671875 285.3046875 -248.38671875 285.3046875 C-249.73958653 265.68325481 -249.73958653 265.68325481 -256.53125 247.5546875 C-258.38671875 244.3046875 -258.38671875 244.3046875 -258.19921875 240.9921875 C-257.38671875 238.3046875 -257.38671875 238.3046875 -256.38671875 236.3046875 C-256.01696624 231.31302864 -256.29104778 229.14331951 -259.38671875 225.3046875 C-260.07421875 222.0546875 -260.07421875 222.0546875 -260.38671875 219.3046875 C-262.80938961 219.25301223 -262.80938961 219.25301223 -265.38671875 220.3046875 C-269.03058303 226.33591113 -269.34947029 232.23195676 -267.7421875 239.03125 C-266.80707414 242.22814001 -265.87820524 245.32171452 -264.38671875 248.3046875 C-269.12953876 239.96614814 -270.6465192 230.95328113 -268.546875 221.5390625 C-267.84667926 219.19677071 -267.10096392 216.86728296 -266.296875 214.55859375 C-264.88339054 209.50523515 -264.78247518 205.68941235 -266.88671875 200.8671875 C-267.38171875 200.0215625 -267.87671875 199.1759375 -268.38671875 198.3046875 C-269.37671875 198.3046875 -270.36671875 198.3046875 -271.38671875 198.3046875 C-272.04671875 199.2946875 -272.70671875 200.2846875 -273.38671875 201.3046875 C-273.25652344 200.72460938 -273.12632812 200.14453125 -272.9921875 199.546875 C-272.1093618 194.87764105 -272.1093618 194.87764105 -273.29296875 190.40625 C-275.16669938 188.06408671 -276.88305416 186.49526329 -279.69921875 185.4296875 C-280.25609375 185.3884375 -280.81296875 185.3471875 -281.38671875 185.3046875 C-280.89171875 184.3146875 -280.89171875 184.3146875 -280.38671875 183.3046875 C-277.27913891 183.3046875 -275.11879912 183.68551346 -272.70874023 185.72387695 C-267.56993356 191.40850205 -264.79245165 197.40175173 -262.01171875 204.4921875 C-261.57472656 205.55888672 -261.13773438 206.62558594 -260.6875 207.72460938 C-258.86214527 212.24278618 -257.21793255 216.48789612 -256.38671875 221.3046875 C-256.05671875 221.3046875 -255.72671875 221.3046875 -255.38671875 221.3046875 C-255.38671875 217.0146875 -255.38671875 212.7246875 -255.38671875 208.3046875 C-255.30744141 209.28187744 -255.22816406 210.25906738 -255.14648438 211.26586914 C-252.4790636 243.33740923 -248.17790282 275.82025534 -237.38671875 306.3046875 C-237.09861328 307.13983887 -236.81050781 307.97499023 -236.51367188 308.83544922 C-225.13314397 341.51536893 -206.59852895 368.80089553 -179.38671875 390.3046875 C-178.40960938 391.08714844 -177.4325 391.86960937 -176.42578125 392.67578125 C-151.16190803 412.56233133 -126.48809044 428.62430135 -93.20458984 425.07177734 C-76.69890943 422.62200885 -61.18133313 411.52359321 -48.15234375 401.63769531 C-46.22358802 400.18152741 -44.27548063 398.75397661 -42.32421875 397.328125 C-34.64229534 391.68760825 -27.27873662 385.90580851 -20.38671875 379.3046875 C-19.46890625 378.46164062 -18.55109375 377.61859375 -17.60546875 376.75 C22.2690884 339.33487107 35.43088184 282.34798948 43.375 230.40234375 C45.60102 216.06677494 50.47385599 196.06917306 61.80078125 186.0546875 C64.18580952 184.57066991 65.84329879 183.62430086 68.61328125 183.3046875 C68.61328125 184.9546875 68.61328125 186.6046875 68.61328125 188.3046875 C67.29328125 188.6346875 65.97328125 188.9646875 64.61328125 189.3046875 C65.02910174 193.87871284 66.06999887 197.78369532 67.61328125 202.1171875 C72.10336528 215.39007327 70.49436192 226.69946506 64.55078125 239.4296875 C60.80380642 246.53768267 56.01384331 252.37167566 50.61328125 258.3046875 C52.37297415 255.28733174 54.18837779 252.47303538 56.36328125 249.7421875 C65.77656923 237.29311414 70.03463637 226.9734356 68.61328125 211.3046875 C67.25428153 205.67637732 65.28746945 200.43623784 62.61328125 195.3046875 C59.98925536 195.66662211 58.83846245 196.06590841 56.99609375 198.01953125 C54.24892714 202.55934048 55.05226954 208.51401389 56.0703125 213.578125 C56.52261114 215.17255904 57.0580545 216.74311226 57.61328125 218.3046875 C56.95328125 217.6446875 56.29328125 216.9846875 55.61328125 216.3046875 C54.29328125 216.3046875 52.97328125 216.3046875 51.61328125 216.3046875 C50.38219478 218.76686043 50.55757492 220.25106179 50.65625 222.99609375 C50.67751953 223.94162109 50.69878906 224.88714844 50.72070312 225.86132812 C50.77336996 227.83826112 50.83813325 229.81491537 50.91601562 231.79101562 C51.07399032 240.45622038 48.57043212 246.164395 44.11328125 253.4296875 C39.4204173 261.62771527 36.39044595 273.15740506 36.55078125 282.6171875 C36.57140625 283.8340625 36.59203125 285.0509375 36.61328125 286.3046875 C47.60049493 283.42516883 54.58354288 272.47232468 60.55859375 263.4140625 C62.36176814 260.6853043 64.26878745 258.10067262 66.23828125 255.4921875 C78.69438232 237.60279873 82.84381016 216.15611281 79.86328125 194.8046875 C78.23650427 186.44167909 74.69853346 178.38993971 68.61328125 172.3046875 C64.63684834 171.84586832 62.19067383 172.03366649 58.55078125 173.7421875 C54.70238216 177.0993016 52.2341366 180.95518288 49.61328125 185.3046875 C49.92072266 183.72494141 49.92072266 183.72494141 50.234375 182.11328125 C50.50696495 180.65633497 50.77907363 179.19929859 51.05078125 177.7421875 C51.18548828 177.05705078 51.32019531 176.37191406 51.45898438 175.66601562 C60.00974702 129.15820906 51.96238012 76.85414697 26.11816406 36.99902344 C16.99463671 23.76901607 6.37520157 12.09955072 -6.38671875 2.3046875 C-7.28648437 1.57765625 -8.18625 0.850625 -9.11328125 0.1015625 C-44.8847664 -28.08203186 -96.21886014 -37.78134735 -140.38671875 -27.6953125 Z M47.61328125 229.3046875 C45.02100607 234.16520346 45.42638572 238.95739883 45.61328125 244.3046875 C48.68480244 241.40507406 48.68480244 241.40507406 49.78125 237.4296875 C49.79091797 236.3778125 49.79091797 236.3778125 49.80078125 235.3046875 C49.82205078 234.2528125 49.82205078 234.2528125 49.84375 233.1796875 C49.77840448 231.05943812 49.77840448 231.05943812 47.61328125 229.3046875 Z " fill="#000000" transform="translate(433.38671875,53.6953125)"/>
<path d="M0 0 C1.04470459 0.00942627 2.08940918 0.01885254 3.16577148 0.02856445 C21.41331266 0.37999028 47.03890916 4.12046377 60.546875 17.53125 C64.1586246 22.27812091 65.50584205 25.3562656 65.375 31.375 C61.676283 30.01615236 58.56777237 28.30100806 55.25 26.1875 C40.86495334 17.73913927 24.58548781 13.72941041 8.375 10.375 C7.41464844 10.17132813 6.45429688 9.96765625 5.46484375 9.7578125 C-7.13159488 8.19719178 -20.55505627 8.25199267 -32.625 12.375 C-33.95522178 12.72054148 -35.28761092 13.05833086 -36.625 13.375 C-27.12660347 2.65100391 -13.83543555 -0.19556584 0 0 Z " fill="#000000" transform="translate(232.625,224.625)"/>
<path d="M0 0 C-3.61653023 1.20551008 -5.68857914 0.36817477 -9.30175781 -0.49755859 C-14.45519629 -1.45718367 -19.64841249 -1.33803165 -24.875 -1.3125 C-26.66031128 -1.30512817 -26.66031128 -1.30512817 -28.48168945 -1.29760742 C-54.24293 -0.95916897 -76.37215262 6.15817767 -98 20 C-98.66 20 -99.32 20 -100 20 C-98.38462762 12.49236456 -96.07069201 6.89933366 -90 2 C-63.86819568 -14.21631004 -26.05091693 -17.56463339 0 0 Z " fill="#000000" transform="translate(456,236)"/>
<path d="M0 0 C0.42410156 0.38671875 0.84820312 0.7734375 1.28515625 1.171875 C8.62923316 7.74997154 8.62923316 7.74997154 17.9375 10.25 C18.948125 10.1675 19.95875 10.085 21 10 C19.68 7.36 18.36 4.72 17 2 C21 4 21 4 23.7578125 6.078125 C27.52037702 8.30846445 30.61461274 8.65917779 34.875 8.75 C35.56335938 8.77964844 36.25171875 8.80929688 36.9609375 8.83984375 C38.64001626 8.90980536 40.32000812 8.95725211 42 9 C40.35 6.69 38.7 4.38 37 2 C40.33727786 3.17255709 42.77437487 4.18868404 45 7 C45 7.66 45 8.32 45 9 C46.20269531 9.02126953 46.20269531 9.02126953 47.4296875 9.04296875 C68.69584175 9.93508633 88.94422687 17.66541626 104 33 C108.15542518 38.44162821 111.04711168 44.45208033 113 51 C112.67 51.99 112.34 52.98 112 54 C111.67128906 53.5153125 111.34257812 53.030625 111.00390625 52.53125 C107.02745538 46.9275794 102.50671346 42.14104852 97 38 C96.34 38 95.68 38 95 38 C93.84852246 39.62839849 93.84852246 39.62839849 92.75 41.6875 C89.62855621 46.88990632 85.72485446 50.70404261 80 53 C71.05407515 54.07035625 63.37524555 53.41937932 56 48 C53.68667258 45.84384132 51.8210342 43.57829594 50 41 C49.38125 40.236875 48.7625 39.47375 48.125 38.6875 C46.39888531 34.5640038 46.59384255 30.41305687 47 26 C47.33 25.34 47.66 24.68 48 24 C39.33783216 24.86735804 31.714948 25.69301006 24 30 C24.23291087 37.33669251 25.82328051 42.61699757 31 48 C36.4296844 52.1792551 41.95683436 54.17897976 48.5625 55.75 C49.37396484 55.95753906 50.18542969 56.16507812 51.02148438 56.37890625 C60.32199105 58.70590953 69.37776316 59.25670873 78.9375 59.5625 C80.19369141 59.60568359 81.44988281 59.64886719 82.74414062 59.69335938 C85.82932968 59.79893619 88.91459263 59.90104551 92 60 C92 60.33 92 60.66 92 61 C77.83492423 62.06565964 64.08338662 62.54069819 50.11328125 59.41796875 C45.32437878 58.47081059 41.18305004 58.32284797 37 61 C37 59.35 37 57.7 37 56 C31.31632113 54.10544038 26.50196983 54.85288982 21 57 C21 56.34 21 55.68 21 55 C23 53.375 23 53.375 25 52 C24.67 51.01 24.34 50.02 24 49 C21.03421164 47.83486886 18.15436364 47.91237879 15 48 C16.375 46.5 16.375 46.5 18 45 C18.66 45 19.32 45 20 45 C19.505 42.525 19.505 42.525 19 40 C13.555 38.515 13.555 38.515 8 37 C8 36.34 8 35.68 8 35 C10.64738916 33.5393715 11.89448334 33 15 33 C14.401875 32.401875 13.80375 31.80375 13.1875 31.1875 C11.45833333 29.45833333 9.72916667 27.72916667 8 26 C9.65 25.34 11.3 24.68 13 24 C12.113125 23.54625 11.22625 23.0925 10.3125 22.625 C4.44887622 18.74364147 1.71602454 10.5520937 0 4 C0 2.68 0 1.36 0 0 Z M50 24 C47.61687096 26.89730041 47.61687096 26.89730041 48.3125 30.5625 C48.81179797 33.84286044 48.81179797 33.84286044 50 36 C54.9018863 35.73529242 54.9018863 35.73529242 58.9375 33.25 C60.20345869 30.5691463 60.46236667 28.92832224 60 26 C56.32003497 23.54668998 54.34586828 23.60492107 50 24 Z " fill="#000000" transform="translate(183,244)"/>
<path d="M0 0 C1.3274855 3.98245651 -0.00092171 6.44789543 -1.4375 10.1875 C-1.68048828 10.84169922 -1.92347656 11.49589844 -2.17382812 12.16992188 C-2.7743293 13.78303286 -3.38609203 15.3919435 -4 17 C-4.66 17 -5.32 17 -6 17 C-6.37125 17.86625 -6.37125 17.86625 -6.75 18.75 C-8.18299988 21.32939979 -9.78424676 23.06121592 -12 25 C-12.66 25 -13.32 25 -14 25 C-14 25.99 -14 26.98 -14 28 C-12.68 28 -11.36 28 -10 28 C-10 28.99 -10 29.98 -10 31 C-10.9590625 31.433125 -10.9590625 31.433125 -11.9375 31.875 C-14.15206079 32.82823451 -14.15206079 32.82823451 -15 35 C-13.68 35.66 -12.36 36.32 -11 37 C-11.71027344 37.48210937 -12.42054688 37.96421875 -13.15234375 38.4609375 C-14.07144531 39.09257812 -14.99054688 39.72421875 -15.9375 40.375 C-16.85402344 41.00148438 -17.77054687 41.62796875 -18.71484375 42.2734375 C-21.08387164 43.79771071 -21.08387164 43.79771071 -22 46 C-20.68 47.32 -19.36 48.64 -18 50 C-18.68707031 50.02578125 -19.37414062 50.0515625 -20.08203125 50.078125 C-20.98308594 50.13484375 -21.88414062 50.1915625 -22.8125 50.25 C-23.70582031 50.29640625 -24.59914063 50.3428125 -25.51953125 50.390625 C-28.16053515 50.79121416 -28.16053515 50.79121416 -29.82421875 53.046875 C-30.21222656 53.69140625 -30.60023438 54.3359375 -31 55 C-29.515 55.99 -29.515 55.99 -28 57 C-28.495 57.99 -28.495 57.99 -29 59 C-29.66 58.67 -30.32 58.34 -31 58 C-32.70702735 57.93003986 -34.41668003 57.91559846 -36.125 57.9375 C-37.03507812 57.94652344 -37.94515625 57.95554687 -38.8828125 57.96484375 C-39.58148438 57.97644531 -40.28015625 57.98804688 -41 58 C-40.505 60.475 -40.505 60.475 -40 63 C-40.495 62.484375 -40.99 61.96875 -41.5 61.4375 C-45.64751021 59.05268163 -49.83036812 60.51407839 -54.28808594 61.51245117 C-62.4272268 63.23358324 -70.40139058 63.23010083 -78.6875 63.125 C-80.0826758 63.11494059 -81.4778587 63.10582002 -82.87304688 63.09765625 C-86.2488837 63.07429406 -89.62434618 63.04153668 -93 63 C-93 62.67 -93 62.34 -93 62 C-92.32235596 61.99589111 -91.64471191 61.99178223 -90.9465332 61.98754883 C-60.58149523 62.18911543 -60.58149523 62.18911543 -34.22265625 49.1875 C-29.97430645 43.86927238 -26 37.90039141 -26 31 C-34.15906215 27.94035169 -42.44538652 26.48000061 -51 25 C-50.94779297 25.94359375 -50.94779297 25.94359375 -50.89453125 26.90625 C-50.63466951 35.12283086 -51.95944878 40.72676 -57.0625 47.25 C-62.4527061 52.990513 -68.78898339 55.15209436 -76.5625 55.5 C-83.76419444 55.18467157 -89.48126918 53.00287799 -94.4375 47.6875 C-97.08918391 44.29393223 -98.14410452 41.19388785 -99 37 C-107.19249133 41.22037432 -112.60173281 48.76402483 -118 56 C-119.62708428 52.74583145 -118.13804535 50.06533342 -117.0703125 46.72265625 C-111.42973083 32.37416931 -98.07895891 22.51362073 -84.40625 16.390625 C-75.68613017 13.11093391 -67.0440653 11.08843151 -57.71875 10.875 C-48.44836092 10.99586198 -48.44836092 10.99586198 -40.4375 6.9375 C-39.633125 5.968125 -38.82875 4.99875 -38 4 C-37.505 4.99 -37.505 4.99 -37 6 C-37.93446535 8.03144641 -38.93224776 10.03533587 -40 12 C-33.57732655 11.85522662 -29.06576772 11.0149621 -23.7890625 7.25390625 C-21.93322285 5.95319768 -20.04552274 4.96869469 -18 4 C-18.4640625 5.11375 -18.4640625 5.11375 -18.9375 6.25 C-19.81160747 8.5123958 -20.44256673 10.64974079 -21 13 C-11.87849847 10.74256602 -5.56571088 7.79199523 0 0 Z M-97 36 C-96.62095792 39.29075996 -96.62095792 39.29075996 -95 42 C-91.75320705 42.28860382 -89.59272742 42.28076562 -86.625 40.875 C-84.6983368 39.01592648 -84.6983368 39.01592648 -84.6875 35.875 C-84.68465212 33.10649557 -84.68465212 33.10649557 -86 32 C-90.78259217 31.31677255 -93.24062501 33.20232559 -97 36 Z " fill="#000000" transform="translate(475,242)"/>
<path d="M0 0 C2.85026332 0.30538536 4.05165508 1.04448076 6.25 2.9375 C8.744629 7.30310076 8.79496131 11.08068499 8 16 C6.00342873 19.85544798 4.60292362 21.59805092 1 24 C-0.70418382 24.14527469 -2.41488519 24.22076727 -4.125 24.25 C-8.63572709 24.54754136 -11.12995556 25.42551669 -14.75 28.125 C-17.7239172 30.30411809 -18.65000892 30.9745461 -22.4375 31.25 C-25.7433216 30.0900626 -28.0758718 28.7538516 -31 26.875 C-35.5793069 23.94203002 -37.62727423 24.00505078 -43 25 C-47.45641334 23.74922228 -50.32653103 21.91836678 -53.0625 18.1875 C-54.53281547 13.18842741 -53.8658871 9.62786775 -51.4375 5.0625 C-50.963125 4.381875 -50.48875 3.70125 -50 3 C-49.67 3.66 -49.34 4.32 -49 5 C-49.33 5.66 -49.66 6.32 -50 7 C-50.72286995 13.65252917 -50.72286995 13.65252917 -48.1875 19.5625 C-45.97341537 21.15148522 -45.97341537 21.15148522 -43 22 C-42.67 21.34 -42.34 20.68 -42 20 C-42.33 19.34 -42.66 18.68 -43 18 C-43.13415472 15.3276379 -43.04318541 12.67749512 -43 10 C-42.34 10.33 -41.68 10.66 -41 11 C-40.87625 12.03125 -40.7525 13.0625 -40.625 14.125 C-39.5467325 18.25835875 -37.02398463 19.72487026 -33.5 21.9375 C-27.9476696 24.87306225 -23.21909203 26.68848873 -17 25 C-13.98383682 23.34084521 -11.53931794 21.30847086 -9 19 C-7.515 17.824375 -7.515 17.824375 -6 16.625 C-5.34 16.08875 -4.68 15.5525 -4 15 C-4.33 16.98 -4.66 18.96 -5 21 C-1.55892288 20.53045985 -1.55892288 20.53045985 2 19 C4.36219176 15.23525688 5.01402321 12.81334647 4.9375 8.375 C3.92235928 4.72049342 2.57700924 2.7432679 0 0 Z " fill="#000000" transform="translate(349,351)"/>
<path d="M0 0 C4.65839719 1.37011682 9.06472927 1.78660829 13.6875 -0.0625 C17.28844503 -1.50287801 20.42046629 -1.80799003 24.1875 -1.0625 C28.74798287 1.03487428 32.78754587 3.84076174 36.73046875 6.9296875 C42.22003605 11.2706712 42.22003605 11.2706712 48.9375 12.1875 C53.42416907 11.27104007 55.99272762 9.13227238 59.1875 5.9375 C59.6825 7.9175 59.6825 7.9175 60.1875 9.9375 C56.20328332 12.71373609 52.88242943 15.00190901 48 15.625 C45.96527281 15.94892575 45.96527281 15.94892575 44.1875 16.9375 C42.66528546 19.29001338 41.62444644 21.7069197 40.50390625 24.2734375 C36.2096019 32.96398815 27.89575597 37.466209 19.1875 40.9375 C8.64351471 43.76763681 -3.10659534 42.77459301 -12.8125 37.9375 C-13.53953125 37.57527344 -14.2665625 37.21304688 -15.015625 36.83984375 C-21.64911472 33.10534095 -26.78630085 27.77764624 -29.625 20.6875 C-31.28116931 16.98291076 -33.13043323 16.02353039 -36.875 14.5625 C-37.73222656 14.28664063 -38.58945312 14.01078125 -39.47265625 13.7265625 C-41.8125 12.9375 -41.8125 12.9375 -44.8125 10.9375 C-44.4825 9.6175 -44.1525 8.2975 -43.8125 6.9375 C-43.173125 7.5975 -42.53375 8.2575 -41.875 8.9375 C-37.76548336 11.62126597 -34.59930432 11.77369755 -29.8125 10.9375 C-26.69759913 9.36172186 -26.69759913 9.36172186 -23.8125 6.9375 C-9.10189016 -3.43849184 -9.10189016 -3.43849184 0 0 Z M-6.8125 21.9375 C-4.22701372 24.52298628 -2.51711615 24.91391847 1.10546875 25.03515625 C2.18441406 25.02355469 3.26335937 25.01195312 4.375 25 C5.46167969 24.99097656 6.54835938 24.98195313 7.66796875 24.97265625 C8.49941406 24.96105469 9.33085937 24.94945312 10.1875 24.9375 C10.1875 24.6075 10.1875 24.2775 10.1875 23.9375 C4.5775 23.2775 -1.0325 22.6175 -6.8125 21.9375 Z " fill="#000000" transform="translate(320.8125,397.0625)"/>
<path d="M0 0 C5.21077837 0.97302004 10.36679688 2.08062283 15.50952148 3.3684082 C33.63327589 7.84061541 51.99019556 10.16851978 70.5625 11.75 C71.7028067 11.84754074 71.7028067 11.84754074 72.8661499 11.947052 C83.91828253 12.94322596 83.91828253 12.94322596 95 13 C95.66 12.34 96.32 11.68 97 11 C99.125 11.375 99.125 11.375 101 12 C101.061875 12.598125 101.12375 13.19625 101.1875 13.8125 C101.85953125 16.18285768 101.85953125 16.18285768 104.125 17.75 C107.59278683 19.2577334 110.25670998 19.22019353 114 19 C114.5878125 20.5159375 114.5878125 20.5159375 115.1875 22.0625 C116.92693343 26.16020376 119.32329078 29.45516887 122 33 C121.505 33.99 121.505 33.99 121 35 C120.39414062 34.34773437 119.78828125 33.69546875 119.1640625 33.0234375 C102.05936386 15.18192107 82.00808519 15.50410274 58.63500977 13.84594727 C12.4044794 10.51485354 12.4044794 10.51485354 0 0 Z " fill="#000000" transform="translate(188,555)"/>
<path d="M0 0 C-17.65141665 6.2153594 -34.61496113 10.73083048 -53.40625 11.46484375 C-55.22136193 11.54344077 -57.03646585 11.62222289 -58.8515625 11.70117188 C-61.66364264 11.81984458 -64.47577333 11.93652627 -67.28808594 12.04956055 C-98.55942918 12.79099506 -98.55942918 12.79099506 -125 28 C-126.74643529 29.9482639 -128.36484376 31.9560547 -130 34 C-130.66 34 -131.32 34 -132 34 C-131.07791398 29.38956991 -129.28465685 27.11363428 -125.9375 24 C-122.39192068 20.68316773 -121.57853686 18.85970963 -121 14 C-118.4375 12.625 -118.4375 12.625 -116 12 C-115.67 13.32 -115.34 14.64 -115 16 C-114.46375 15.73445312 -113.9275 15.46890625 -113.375 15.1953125 C-98.76943814 8.61320074 -80.8466152 9.34536118 -65.0769043 8.39819336 C-47.68331343 7.34096946 -30.31452666 5.80262172 -13.4375 1.25 C-11.7093003 0.78829646 -9.97888302 0.33479355 -8.24609375 -0.109375 C-7.52091553 -0.30499023 -6.7957373 -0.50060547 -6.04858398 -0.70214844 C-3.7500088 -1.03634719 -2.19574453 -0.70337995 0 0 Z " fill="#000000" transform="translate(464,557)"/>
<path d="M0 0 C0 0.99 0 1.98 0 3 C1.32 3.33 2.64 3.66 4 4 C2.67162109 4.51046875 2.67162109 4.51046875 1.31640625 5.03125 C-17.78259118 12.46139463 -39.51859169 21.09305013 -53.5390625 36.71484375 C-56.0256531 38.90224564 -58.85313361 38.17812451 -62 38 C-50.90998134 24.35074626 -37.12007761 16.0230068 -21.27905273 8.82617188 C-17.02869013 6.81988373 -14.84420445 4.66670066 -12 1 C-8.375 0.75 -8.375 0.75 -5 1 C-3 0 -3 0 0 0 Z " fill="#000000" transform="translate(153,617)"/>
<path d="M0 0 C5.17688617 0.44058606 8.98081265 1.79173967 13.65234375 4.02734375 C16.75508593 5.31283926 19.83783039 5.84484379 23.15234375 6.3125 C25 7 25 7 25.87890625 8.859375 C27.52958995 12.0112031 29.83730157 12.71340595 33 14.25 C39.35881632 17.53445469 44.6145235 21.31775101 50 26 C50.85207031 26.71929688 51.70414063 27.43859375 52.58203125 28.1796875 C58.8589496 33.57684879 58.8589496 33.57684879 60 37 C57.18746565 37.55027846 55.73635943 37.70022991 53 37 C50.94140625 35.41796875 50.94140625 35.41796875 48.6875 33.25 C36.89966603 21.92097394 21.99354431 14.062651 7.97631836 5.81201172 C6.93999268 5.19986816 5.90366699 4.58772461 4.8359375 3.95703125 C3.90313965 3.41022705 2.9703418 2.86342285 2.00927734 2.30004883 C1.34621582 1.87103271 0.6831543 1.4420166 0 1 C0 0.67 0 0.34 0 0 Z " fill="#000000" transform="translate(491,618)"/>
<path d="M0 0 C3.59757585 1.54895627 6.12532462 3.73695948 9 6.375 C9.845625 7.14585937 10.69125 7.91671875 11.5625 8.7109375 C13.75248722 10.76756012 15.89052389 12.86122561 18 15 C22.32504836 13.34136495 25.09418825 10.128959 28.25 6.875 C28.80429687 6.31167969 29.35859375 5.74835937 29.9296875 5.16796875 C31.29104485 3.78313972 32.64614859 2.39216796 34 1 C34.66 1.33 35.32 1.66 36 2 C35.23816406 2.76570312 35.23816406 2.76570312 34.4609375 3.546875 C26.65579198 11.79051184 21.3840439 20.47868303 21 32 C19.35 32 17.7 32 16 32 C16.10441406 31.35675781 16.20882813 30.71351563 16.31640625 30.05078125 C17.16858499 20.5686019 12.76756394 14.93567815 7 8 C5.13176176 5.96930626 3.24864158 4.03503673 1.21484375 2.171875 C0.81394531 1.78515625 0.41304688 1.3984375 0 1 C0 0.67 0 0.34 0 0 Z " fill="#000000" transform="translate(301,623)"/>
</svg>
